<svg width="206" height="22" viewBox="0 0 206 22" fill="none" xmlns="http://www.w3.org/2000/svg">
<path d="M198.223 5.04419C200.725 5.04419 202.647 5.65192 203.988 6.86739C205.329 8.06261 206 9.87568 206 12.3066V21.6353H201.616V19.5994C200.735 21.1188 199.094 21.8784 196.691 21.8784C195.45 21.8784 194.369 21.6657 193.449 21.2403C192.548 20.8149 191.857 20.2274 191.377 19.4779C190.896 18.7284 190.656 17.8775 190.656 16.9254C190.656 15.4061 191.217 14.2109 192.338 13.3398C193.479 12.4687 195.23 12.0331 197.592 12.0331H201.316C201.316 11 201.005 10.2099 200.385 9.66297C199.764 9.09575 198.833 8.81214 197.592 8.81214C196.731 8.81214 195.881 8.95395 195.04 9.23756C194.219 9.50091 193.519 9.86555 192.938 10.3315L191.257 7.01933C192.137 6.39133 193.188 5.90515 194.409 5.56076C195.65 5.21638 196.922 5.04419 198.223 5.04419ZM197.862 18.6878C198.663 18.6878 199.374 18.5055 199.994 18.1409C200.615 17.756 201.055 17.1989 201.316 16.4696V14.7983H198.103C196.181 14.7983 195.22 15.4365 195.22 16.7127C195.22 17.3204 195.45 17.8066 195.911 18.1713C196.391 18.5156 197.042 18.6878 197.862 18.6878Z" fill="#0F76D1"/>
<path d="M187.368 5.28723V21.6353H182.924V19.6905C182.303 20.3996 181.562 20.9465 180.702 21.3314C179.841 21.6961 178.91 21.8784 177.909 21.8784C175.787 21.8784 174.106 21.2605 172.865 20.0248C171.623 18.7891 171.003 16.9557 171.003 14.5248V5.28723H175.687V13.8259C175.687 16.4594 176.778 17.7762 178.96 17.7762C180.081 17.7762 180.982 17.4115 181.662 16.6823C182.343 15.9327 182.683 14.8287 182.683 13.3701V5.28723H187.368Z" fill="#0F76D1"/>
<path d="M165.211 21.8784C164.39 21.8784 163.7 21.5948 163.139 21.0276C162.579 20.4604 162.299 19.7514 162.299 18.9005C162.299 18.0294 162.579 17.3305 163.139 16.8038C163.7 16.2569 164.39 15.9834 165.211 15.9834C166.032 15.9834 166.723 16.2569 167.283 16.8038C167.844 17.3305 168.124 18.0294 168.124 18.9005C168.124 19.7514 167.844 20.4604 167.283 21.0276C166.723 21.5948 166.032 21.8784 165.211 21.8784Z" fill="#0F76D1"/>
<path d="M153.655 17.0773H143.897L142.035 21.6353H137.051L146.419 0.364624H151.223L160.622 21.6353H155.517L153.655 17.0773ZM152.124 13.3398L148.791 5.19612L145.458 13.3398H152.124Z" fill="#050000"/>
<path d="M134.84 0.364624V21.6353H130.846L120.367 8.72098V21.6353H115.563V0.364624H119.586L130.036 13.279V0.364624H134.84Z" fill="#050000"/>
<path d="M105.71 0.364624H110.574V21.6353H105.71V0.364624Z" fill="#050000"/>
<path d="M100.737 0.364624V21.6353H95.8726V12.9143H86.3241V21.6353H81.4597V0.364624H86.3241V8.75136H95.8726V0.364624H100.737Z" fill="#050000"/>
<path d="M69.2181 22C67.5566 22 65.9451 21.7772 64.3837 21.3315C62.8424 20.8656 61.6012 20.268 60.6604 19.5387L62.3119 15.8315C63.2127 16.5 64.2836 17.0368 65.5248 17.442C66.7659 17.8471 68.007 18.0497 69.2481 18.0497C70.6293 18.0497 71.6503 17.8471 72.3109 17.442C72.9714 17.0166 73.3017 16.4595 73.3017 15.7707C73.3017 15.2643 73.1016 14.849 72.7012 14.5249C72.3209 14.1805 71.8204 13.907 71.1999 13.7044C70.5993 13.5018 69.7786 13.279 68.7376 13.0359C67.1362 12.651 65.825 12.2661 64.8041 11.8812C63.7832 11.4963 62.9024 10.8785 62.1617 10.0276C61.4411 9.17679 61.0808 8.04236 61.0808 6.62431C61.0808 5.38858 61.4111 4.2744 62.0717 3.28177C62.7323 2.26888 63.7231 1.46869 65.0443 0.881215C66.3855 0.293739 68.017 0 69.9387 0C71.2799 0 72.5911 0.162063 73.8723 0.486187C75.1534 0.810313 76.2744 1.27624 77.2353 1.88398L75.7339 5.62155C73.7922 4.50737 71.8504 3.95028 69.9087 3.95028C68.5475 3.95028 67.5366 4.17311 66.876 4.61878C66.2354 5.06446 65.9151 5.65193 65.9151 6.38121C65.9151 7.1105 66.2854 7.65746 67.0261 8.0221C67.7868 8.36648 68.9378 8.71086 70.4792 9.05525C72.0806 9.44015 73.3918 9.82504 74.4127 10.2099C75.4337 10.5948 76.3044 11.2026 77.0251 12.0331C77.7657 12.8637 78.1361 13.988 78.1361 15.4061C78.1361 16.6215 77.7958 17.7357 77.1152 18.7486C76.4546 19.7412 75.4537 20.5313 74.1125 21.1188C72.7713 21.7063 71.1398 22 69.2181 22Z" fill="#050000"/>
<path d="M54.4704 21.6353L49.3959 14.2514L44.4114 21.6353H38.8264L46.6034 10.8177L39.2168 0.364624H44.7417L49.5761 7.26241L54.3203 0.364624H59.575L52.2485 10.6353L60.0855 21.6353H54.4704Z" fill="#050000"/>
<path d="M27.1963 22C24.1936 22 21.8515 21.1593 20.17 19.4779C18.5085 17.7965 17.6777 15.3959 17.6777 12.2762V0.364624H22.5421V12.0939C22.5421 15.9024 24.1035 17.8066 27.2263 17.8066C28.7477 17.8066 29.9087 17.3508 30.7094 16.4392C31.5101 15.5073 31.9105 14.0589 31.9105 12.0939V0.364624H36.7148V12.2762C36.7148 15.3959 35.8741 17.7965 34.1925 19.4779C32.5311 21.1593 30.199 22 27.1963 22Z" fill="#050000"/>
<path d="M0 0.364624H4.86436V17.6243H15.4038V21.6353H0V0.364624Z" fill="#050000"/>
</svg>
