<?xml version="1.0" standalone="no"?>
<!DOCTYPE svg PUBLIC "-//W3C//DTD SVG 20010904//EN"
 "http://www.w3.org/TR/2001/REC-SVG-20010904/DTD/svg10.dtd">
<svg version="1.0" xmlns="http://www.w3.org/2000/svg"
 width="700.000000pt" height="700.000000pt" viewBox="0 0 700.000000 700.000000"
 preserveAspectRatio="xMidYMid meet">
<metadata>
Created by potrace 1.14, written by Peter Selinger 2001-2017
</metadata>
<g transform="translate(0.000000,700.000000) scale(0.100000,-0.100000)"
fill="#000000" stroke="none">
<path d="M3368 6995 c-2 -2 -111 -5 -243 -8 -132 -4 -250 -8 -262 -11 -12 -2
-48 -7 -80 -11 -75 -8 -222 -40 -323 -70 -410 -123 -772 -378 -1055 -745 -146
-189 -267 -408 -358 -650 -51 -134 -112 -320 -121 -366 -2 -10 -11 -44 -20
-74 -8 -30 -17 -66 -20 -80 -3 -14 -16 -83 -30 -153 -14 -70 -28 -149 -31
-175 -3 -26 -10 -83 -16 -127 -13 -95 -16 -121 -23 -245 -3 -52 -9 -140 -12
-195 -13 -204 -6 -866 9 -945 3 -14 8 -72 11 -129 4 -57 10 -122 15 -145 5
-22 12 -57 15 -76 2 -19 12 -84 21 -145 9 -60 19 -128 21 -150 3 -22 10 -56
14 -75 5 -19 25 -111 45 -204 50 -244 123 -492 210 -721 15 -38 28 -88 30
-110 3 -41 63 -173 149 -330 332 -604 853 -988 1382 -1020 347 -20 669 -29
1134 -29 439 -1 502 2 654 35 49 10 94 19 99 19 17 0 1 10 -24 15 -13 3 -42 7
-64 10 -110 14 -165 35 -281 105 -165 101 -346 294 -456 489 -68 119 -174 329
-208 411 -35 85 -101 276 -132 385 -15 50 -14 47 -21 65 -18 43 -119 460 -141
585 -16 89 -56 338 -62 390 -3 33 -8 67 -10 77 -1 9 -8 69 -14 135 -6 65 -13
132 -15 148 -26 224 -27 1164 0 1265 2 8 6 56 10 105 4 50 8 104 11 120 2 17
6 55 9 85 3 30 8 66 10 80 3 14 7 43 10 65 4 22 10 65 15 95 5 30 12 73 15 94
3 21 7 48 10 60 3 12 7 32 9 46 49 291 171 711 289 1000 70 173 192 407 265
510 15 21 34 48 42 60 76 114 240 281 346 352 114 76 235 122 347 131 44 4 73
13 44 14 -28 2 -215 24 -247 30 -32 5 -966 13 -972 8z"/>
<path d="M4657 6879 c-69 -11 -153 -38 -222 -72 -206 -101 -433 -356 -603
-677 -115 -216 -285 -683 -347 -950 -63 -275 -103 -496 -130 -725 -8 -70 -16
-139 -20 -165 -33 -222 -46 -693 -30 -1105 3 -104 8 -206 10 -225 2 -19 6 -79
10 -134 4 -54 8 -106 10 -115 1 -9 6 -45 9 -81 4 -36 8 -75 10 -85 2 -11 7
-49 11 -85 4 -36 8 -67 10 -70 2 -3 6 -29 10 -59 4 -30 9 -63 11 -75 2 -12 9
-48 14 -81 108 -623 305 -1166 563 -1553 248 -371 568 -562 817 -488 227 67
432 185 591 339 84 82 92 91 176 207 204 283 370 641 473 1020 51 190 105 456
124 620 10 85 16 135 21 190 8 97 16 174 20 215 2 22 7 85 10 140 4 55 8 116
10 135 7 65 19 444 18 595 0 145 -11 448 -18 510 -2 17 -6 65 -10 107 -3 43
-8 92 -11 110 -2 18 -6 56 -9 83 -9 81 -26 185 -50 320 -10 59 -48 230 -66
299 -11 43 -22 87 -25 99 -2 11 -10 41 -18 66 -7 25 -24 80 -36 121 -38 127
-119 351 -165 455 -8 17 -26 59 -40 95 -56 136 -207 416 -282 523 -173 246
-365 391 -623 470 -96 30 -154 37 -223 26z m343 -956 c197 -72 376 -345 514
-783 20 -63 39 -126 42 -140 9 -41 22 -92 38 -159 18 -68 74 -373 80 -431 4
-37 13 -105 22 -180 3 -24 8 -67 10 -95 2 -27 6 -69 9 -93 26 -234 27 -1089 1
-1227 -2 -11 -7 -60 -11 -108 -3 -48 -8 -97 -10 -107 -2 -10 -6 -47 -10 -82
-3 -35 -8 -70 -10 -78 -2 -8 -6 -33 -10 -55 -3 -22 -8 -56 -11 -75 -6 -35 -40
-214 -50 -260 -3 -14 -7 -34 -9 -45 -17 -77 -70 -268 -100 -360 -215 -648
-535 -903 -830 -661 -186 153 -346 473 -460 925 -23 90 -31 129 -50 226 -7 35
-44 259 -49 295 -2 19 -7 55 -11 80 -8 60 -14 111 -20 190 -3 36 -8 79 -10 95
-26 191 -27 1001 0 1225 2 19 6 69 10 110 3 41 7 89 10 105 3 17 7 51 10 77 2
26 7 58 9 70 3 13 8 46 11 73 3 28 10 68 15 90 5 22 12 60 15 85 21 142 107
472 165 632 42 114 48 128 113 260 163 333 370 477 577 401z"/>
<path d="M4774 5820 c-84 -37 -161 -130 -253 -302 l-41 -77 63 -133 c82 -172
90 -189 122 -273 30 -77 94 -261 100 -285 2 -8 19 -71 38 -140 34 -123 80
-346 92 -445 3 -27 8 -63 10 -80 27 -173 36 -508 21 -760 -4 -71 -9 -132 -11
-135 -1 -3 -6 -36 -9 -75 -3 -38 -8 -81 -11 -95 -14 -80 -38 -219 -42 -245
-10 -61 -66 -282 -99 -395 -83 -272 -159 -461 -302 -749 l-77 -153 50 -95
c304 -581 698 -495 970 212 62 160 122 363 141 469 3 17 11 56 19 86 18 75 57
305 71 425 3 33 8 67 9 75 2 8 6 56 10 105 4 50 9 98 11 108 23 127 23 926 -1
1122 -2 17 -6 66 -10 110 -3 44 -8 89 -10 100 -2 11 -7 47 -10 80 -4 32 -8 62
-10 65 -1 3 -6 36 -10 75 -4 38 -8 72 -10 75 -2 3 -6 23 -9 45 -4 22 -8 47
-11 55 -2 8 -6 33 -10 54 -17 118 -101 431 -149 561 -40 106 -47 122 -98 226
-93 189 -203 321 -313 375 -75 36 -170 42 -231 14z"/>
</g>
</svg>
