<svg xmlns="http://www.w3.org/2000/svg" version="1.1" xmlns:xlink="http://www.w3.org/1999/xlink" width="512" height="512"><svg width="512" height="512" viewBox="0 0 512 512" fill="none" xmlns="http://www.w3.org/2000/svg">
<g clip-path="url(#clip0_4282_8641)">
<path d="M228.902 255.273C228.902 313.376 237.664 366.716 251.683 409.579C252.267 411.484 252.851 413.389 253.435 415.294C254.019 417.199 254.603 419.104 255.187 420.533C255.771 422.438 256.356 423.867 256.94 425.772C258.108 429.106 259.86 432.439 261.029 435.773C262.197 439.107 263.949 442.441 265.702 445.298C265.702 445.298 265.702 445.298 265.702 445.774C267.454 448.632 268.622 451.489 270.375 454.347C270.959 455.776 272.127 457.205 272.711 458.633C273.295 460.062 274.464 461.491 275.048 462.92C275.632 464.348 276.8 465.777 277.384 466.73C278.552 468.158 279.137 469.587 280.305 471.016C280.889 471.968 282.057 473.397 282.641 474.35C283.225 475.302 283.81 476.255 284.978 477.207C285.562 477.683 286.146 478.636 286.146 479.112C286.73 479.588 287.314 480.541 287.899 481.017C290.819 484.351 293.74 487.209 296.66 490.066C297.245 490.542 298.413 491.495 298.997 491.971C299.581 492.447 300.749 493.4 301.333 493.876C302.502 494.829 303.086 495.305 304.254 496.257C304.838 496.734 306.006 497.21 306.591 497.686C307.175 498.162 308.343 498.639 308.927 499.115C309.511 499.591 310.679 500.067 311.264 500.544C311.848 501.02 313.016 501.496 313.6 501.972C315.352 502.925 317.105 503.401 318.857 504.354C319.441 504.83 320.026 504.83 320.61 504.83C321.194 504.83 321.194 504.83 321.194 505.306C321.778 505.782 322.946 505.782 323.53 505.782C323.53 505.782 323.53 505.782 324.114 505.782C324.699 505.782 325.867 506.259 326.451 506.259H327.035C327.619 506.259 328.787 506.735 329.372 506.735C330.54 506.735 331.124 506.735 332.292 507.211C333.46 507.211 334.045 507.211 335.213 507.211C324.699 510.069 313.016 511.974 301.333 511.974C252.267 512.45 199.695 509.592 199.695 509.592C199.695 509.592 146.54 511.974 104.483 448.632C102.73 446.251 101.562 443.869 99.8095 441.488C94.5524 432.439 89.2953 422.438 84.6222 411.484C85.7905 410.055 85.2064 409.103 85.2064 408.15C81.1175 397.673 77.0286 386.243 73.5238 373.384C72.9397 372.431 72.9397 371.002 72.3556 369.574C70.0191 360.525 67.6825 351 65.9302 340.998C65.9302 340.522 65.9302 339.57 65.346 339.093C63.5937 330.997 62.4254 322.901 61.2571 313.852C60.673 311.471 60.673 308.613 60.0889 306.232C60.0889 305.279 60.0889 304.327 59.5048 303.374C59.5048 302.422 59.5048 301.469 58.9206 300.993C58.3365 298.612 58.3365 296.231 58.3365 293.849C58.3365 293.373 58.3365 292.897 58.3365 291.944C57.7524 288.61 57.7524 285.753 57.7524 282.895C57.7524 281.467 57.7524 280.038 57.1683 278.133C57.1683 276.704 57.1683 275.275 56.5841 273.847C56.5841 272.894 56.5841 271.942 56.5841 271.465C56.5841 260.035 56 248.605 56 237.651V236.222C56 235.27 56 234.794 56 233.841C56 232.889 56 232.412 56 231.46C56 221.935 56.5841 212.886 57.1683 203.837C57.1683 202.885 57.1683 201.932 57.1683 200.98C57.7524 190.026 59.5048 179.548 60.673 169.547C60.673 169.071 60.673 169.071 60.673 168.594C63.0095 155.735 65.346 143.829 68.8508 132.399C68.8508 131.923 69.4349 130.97 69.4349 130.018C72.3556 120.493 75.8603 110.968 79.3651 102.395C79.3651 101.919 79.9492 100.966 79.9492 100.49C109.156 36.6719 160.559 1.90527 224.229 0.952762C275.632 0.000253133 311.264 -1.42851 338.133 3.81029C337.549 3.81029 337.549 3.81029 336.965 3.81029C277.384 3.81029 228.902 116.683 228.902 255.273Z" fill="url(#paint0_linear_4282_8641)"></path>
<path d="M336.965 506.735C326.451 509.593 314.768 511.498 303.086 511.498C254.019 511.974 201.448 509.116 201.448 509.116C201.448 509.116 148.292 511.498 106.235 448.156C104.483 445.775 103.314 443.393 101.562 441.012C96.3048 431.963 91.0476 421.962 86.3746 411.008C85.7905 410.056 85.2064 409.103 85.2064 408.15C81.1175 397.673 77.0286 386.243 73.5238 373.384C72.9397 372.431 72.9397 371.003 72.3556 369.574C70.0191 360.525 67.6825 351 65.9302 340.999C65.9302 340.522 65.9302 339.57 65.346 339.094C63.5937 330.997 62.4254 322.901 61.2571 313.852C60.673 311.471 60.673 308.613 60.0889 306.232C60.0889 305.28 60.0889 304.327 59.5048 303.375C58.9206 300.041 58.9206 296.707 58.3365 293.373C58.3365 292.897 58.3365 292.421 58.3365 291.468C57.7524 285.277 57.1683 279.086 56.5841 273.37C56.5841 272.418 56.5841 271.465 56.5841 270.989C56.5841 260.035 56 248.605 56 237.651V236.223C56 234.794 56 232.889 56 231.46C56.5841 233.365 57.1683 234.794 57.7524 236.699C57.7524 237.651 58.3365 238.128 58.3365 239.08C63.0095 252.892 68.2667 266.703 75.8603 279.562C77.0286 281.943 78.1968 283.848 79.3651 286.229C84.0381 294.326 89.2953 302.422 95.7207 310.518C100.394 316.71 105.651 322.901 110.908 328.616C113.244 330.997 115.581 333.855 117.917 336.236C122.006 340.522 126.679 344.809 131.352 348.619C134.857 351.476 138.362 354.81 141.867 357.668C143.035 358.62 144.203 359.573 145.956 360.525C158.222 369.574 171.657 377.67 185.676 384.814C188.013 385.767 190.349 387.195 192.102 388.148C210.794 397.197 230.654 403.864 251.099 408.627C251.683 410.532 252.267 412.437 252.851 414.342C253.435 416.247 254.019 418.152 254.603 419.581C255.187 421.486 255.772 422.914 256.356 424.819C257.524 428.153 259.276 431.487 260.445 434.821C261.613 438.155 263.365 441.488 265.118 444.346C265.118 444.346 265.118 444.346 265.118 444.822C266.87 447.68 268.038 450.537 269.791 453.395C270.375 454.823 271.543 456.252 272.127 457.681C272.711 459.11 273.88 460.538 274.464 461.967C275.048 463.396 276.216 464.825 276.8 465.777C277.968 467.206 278.553 468.635 279.721 470.064C280.305 471.016 281.473 472.445 282.057 473.397C282.641 474.35 283.226 475.302 284.394 476.255C284.978 476.731 285.562 477.684 285.562 478.16C286.146 478.636 286.73 479.589 287.314 480.065C290.235 483.399 293.156 486.256 296.076 489.114C296.66 489.59 297.829 490.543 298.413 491.019C298.997 491.495 300.165 492.448 300.749 492.924C301.918 493.876 302.502 494.353 303.67 495.305C304.254 495.781 305.422 496.258 306.007 496.734C306.591 497.21 307.759 497.686 308.343 498.163C308.927 498.639 310.095 499.115 310.68 499.591C311.264 500.068 312.432 500.544 313.016 501.02C314.768 501.973 316.521 502.449 318.273 503.401C318.857 503.878 319.441 503.878 320.026 503.878C320.61 503.878 320.61 503.878 320.61 504.354C321.194 504.83 322.362 504.83 322.946 504.83C322.946 504.83 322.946 504.83 323.53 504.83C324.114 504.83 325.283 505.306 325.867 505.306H326.451C327.035 505.306 328.203 505.783 328.787 505.783C329.956 505.783 330.54 505.783 331.708 506.259C335.213 506.735 335.797 506.735 336.965 506.735Z" fill="url(#paint1_linear_4282_8641)"></path>
<path d="M373.765 492.448C381.942 487.685 389.536 481.97 395.961 475.303C398.882 472.445 401.219 469.587 403.555 466.254C420.495 443.87 434.514 415.771 443.276 379.099C447.365 362.906 450.285 344.809 452.038 324.33C461.384 228.603 455.542 153.831 419.911 76.2012C417.574 71.915 415.822 67.6287 413.485 63.8186C405.892 48.5785 397.714 37.6246 388.952 29.0521C382.527 22.8607 374.933 17.6219 365.587 13.8119C362.666 12.3831 359.746 11.4306 356.241 10.4781C352.152 9.04936 348.063 8.09685 343.39 8.57311C341.053 8.57311 339.301 9.04936 336.965 9.52562C332.876 10.4781 328.787 11.9069 324.698 13.8119C320.609 15.7169 316.52 18.5745 313.015 21.432C308.926 24.7658 305.422 28.0995 301.917 31.9096C297.828 36.1959 294.323 40.4822 291.403 45.2447C287.898 50.4835 284.393 55.7223 281.472 61.4374C277.968 67.6287 275.047 73.82 272.711 80.0113C269.79 86.6788 266.869 93.8227 264.533 100.49C262.196 108.11 259.86 115.73 257.523 123.35C255.187 131.447 253.434 139.543 251.682 147.639C249.93 156.212 248.177 164.785 247.009 173.833C245.841 182.882 244.672 191.931 243.504 201.456C242.336 210.981 241.752 220.506 241.752 230.031C241.168 238.604 241.168 247.653 241.168 256.225C241.168 347.19 261.612 426.248 292.571 469.587C304.253 486.256 318.273 497.686 332.292 501.973C339.301 504.354 347.479 503.878 353.904 501.02C360.914 498.639 367.339 495.781 373.765 492.448ZM320.025 409.579C304.838 375.765 295.492 322.425 295.492 261.941C295.492 197.646 306.59 140.972 323.53 107.634C333.46 88.1076 345.142 77.1538 357.993 77.1538C392.457 77.1538 419.911 160.022 419.911 261.941C419.911 363.859 391.873 446.727 357.993 446.727C343.39 446.727 330.539 432.916 320.025 409.579Z" fill="url(#paint2_linear_4282_8641)"></path>
<path d="M415.238 261.94C415.238 359.572 388.368 439.107 355.657 439.107C342.222 439.107 329.955 425.772 320.025 403.388C370.26 313.376 376.101 204.79 327.619 114.301C336.965 95.7273 343.974 84.7734 356.241 84.7734C388.952 84.7734 415.238 164.308 415.238 261.94Z" fill="url(#paint3_linear_4282_8641)"></path>
<path d="M433.93 226.697C432.178 199.075 428.089 171.928 420.495 145.258C421.079 148.592 421.663 151.925 422.247 155.259C422.832 158.593 423.416 161.927 424 165.261C425.168 171.928 425.752 178.596 426.92 185.739C428.673 199.551 429.841 212.886 430.425 226.697C431.009 240.509 431.009 253.844 431.009 267.655C431.009 281.467 429.841 294.802 428.673 308.613C427.505 322.424 425.752 335.76 423.416 349.095C421.079 362.43 418.159 375.765 414.654 389.1C412.901 395.768 410.565 401.959 408.228 408.627C405.892 414.818 402.971 421.485 399.466 427.2C395.962 433.392 391.873 439.107 387.2 443.869C384.863 446.251 381.943 448.632 378.438 450.061C375.517 451.966 371.428 452.918 367.924 452.918C371.428 452.918 375.517 451.966 378.438 450.537C381.943 449.108 384.863 446.727 387.784 444.346C393.041 439.583 397.714 433.868 401.219 427.677C408.812 415.77 413.486 402.435 418.159 389.576C426.336 362.906 431.009 335.76 433.346 308.613C434.514 294.802 435.098 280.99 435.098 267.655C435.098 253.844 434.514 240.509 433.93 226.697Z" fill="white"></path>
<path d="M195.606 472.445L192.686 469.587L190.349 466.254C188.597 464.349 186.844 462.444 185.676 460.062L181.587 453.871L177.498 447.203L175.746 443.87L173.994 440.536L170.489 433.868C161.727 415.771 155.302 397.197 150.044 378.147C147.708 368.621 145.371 359.096 143.619 349.571L140.698 335.284L138.362 320.996C137.778 316.233 136.609 311.471 136.025 306.708L134.273 292.421L132.521 278.133L131.936 263.845L130.768 249.558C130.768 244.795 130.768 240.033 130.768 235.27V220.983C130.768 216.22 131.352 211.457 131.936 206.695C132.521 201.932 132.521 197.17 133.105 192.407L134.857 178.12L136.025 170.976L137.778 161.927L140.698 147.639C145.371 128.589 151.213 110.015 159.975 91.9176C162.311 87.6313 164.063 82.8688 166.984 78.5825L170.489 71.9149L174.578 65.2473L176.914 61.9136L179.251 58.5798C181.003 56.6748 182.171 54.2935 183.924 52.3885C187.429 48.1022 190.349 44.2922 194.438 40.4821C185.676 47.1497 178.082 55.246 171.657 63.3423C169.905 65.2473 168.152 67.6286 166.984 69.5336L162.311 76.2012C159.39 80.4875 156.47 84.7738 154.133 89.5363C146.54 102.871 140.698 116.207 135.441 130.018C131.936 127.637 127.848 125.255 123.759 122.874C119.086 120.017 113.828 117.159 108.571 114.302C111.492 106.681 114.413 99.0614 117.917 91.4413C120.254 87.1551 122.006 82.3925 124.927 78.1062L128.432 71.4387L132.521 64.7711L134.857 61.4373L137.194 58.1035C138.946 56.1985 140.114 53.8172 141.867 51.9122C145.371 47.6259 148.292 43.8159 152.381 40.0059C143.619 46.6734 136.025 54.7697 129.6 62.8661C127.848 64.7711 126.095 67.1524 124.927 69.0574L120.254 76.6775C117.333 80.9637 114.413 85.25 112.076 90.0126C107.987 97.1564 104.482 104.3 101.562 111.444C98.057 109.539 94.5523 108.11 91.0475 106.205C87.5427 104.776 84.6221 103.348 81.1173 101.919C81.1173 102.395 80.5332 103.348 80.5332 103.824C83.4538 105.729 86.3745 107.634 89.2951 109.063C92.7999 111.444 96.8888 113.349 100.394 115.254C96.8888 123.35 93.9681 131.923 91.0475 140.496C87.5427 138.591 84.038 137.162 79.9491 135.257C77.0284 133.828 73.5237 132.399 70.603 131.447C70.603 131.923 70.0189 132.875 70.0189 133.828C72.3554 135.257 75.2761 137.162 77.6126 138.591C81.7015 140.972 85.2062 143.353 89.2951 145.258C89.2951 145.734 89.2951 145.734 88.711 146.211L85.2062 160.498L83.4538 167.642L82.2856 174.786L81.7015 177.643C79.9491 176.691 78.1967 175.738 76.4443 175.262C71.7713 172.881 66.5141 170.976 61.257 169.071C61.257 169.547 61.257 169.547 61.257 170.023C65.3459 172.881 69.4348 175.738 74.1078 178.12C76.4443 179.548 78.7808 180.977 81.1173 181.93L79.365 190.026C78.7808 194.789 78.1967 200.027 77.6126 204.79C77.6126 206.695 77.0284 209.076 77.0284 210.981C73.5237 209.076 70.0189 207.647 66.5141 205.742C63.5935 204.314 60.0887 202.885 57.1681 201.456C57.1681 202.409 57.1681 203.361 57.1681 204.314C59.5046 205.742 62.4253 207.171 64.7618 209.076C68.8507 211.457 72.9396 213.839 77.0284 216.22C77.0284 217.649 77.0284 218.601 77.0284 220.03V234.794C77.0284 238.604 77.0284 242.414 77.0284 246.224C75.2761 245.272 72.9396 244.319 71.1872 243.367C67.0983 241.461 62.4253 239.556 58.3364 237.651C57.7522 237.651 57.1681 237.175 56.584 237.175V238.604C57.1681 239.08 58.3364 239.556 58.9205 240.033C62.4253 241.938 65.3459 244.319 68.8507 246.224C71.7713 247.653 74.6919 249.558 77.0284 250.987L77.6126 264.322L78.7808 279.086L79.365 281.943C78.1967 281.467 77.0284 280.991 76.4443 280.514C74.1078 279.562 72.3554 278.609 70.0189 277.181C65.93 275.276 61.8411 273.371 58.3364 271.942C58.3364 272.894 58.3364 273.847 58.3364 274.323C61.257 276.228 64.7618 278.133 67.6824 280.038C71.7713 282.419 75.8602 284.801 80.5332 287.182L81.1173 293.373L82.8697 308.137C83.4538 310.518 83.4538 312.423 84.038 314.805C79.365 312.9 75.8602 310.995 71.7713 309.566C67.6824 307.661 64.1776 305.756 60.0887 304.327C60.0887 305.28 60.0887 306.232 60.6729 307.185C63.5935 309.09 66.5142 310.995 70.0189 312.423C74.6919 315.281 79.365 317.662 84.6221 320.52C84.6221 321.472 84.6221 321.949 85.2062 322.901L88.1269 337.665L91.0475 351.476C88.1269 350.048 85.2062 348.619 82.2856 347.19C77.0284 344.809 71.7713 342.427 66.5141 340.046C66.5141 340.522 66.5141 341.475 67.0983 341.951C71.1872 344.809 75.8602 347.19 79.9491 350.048C84.038 352.429 88.1269 354.81 92.2158 357.191C93.9681 365.288 96.8888 373.384 99.2253 381.48C99.2253 382.433 99.8094 382.909 99.8094 383.862C94.5523 381.004 88.711 378.623 83.4538 375.765C79.9491 373.86 76.4443 372.431 72.9396 371.003C73.5237 372.431 73.5237 373.384 74.1078 374.813C76.4443 376.241 78.7808 377.67 81.7015 379.099C88.711 382.909 95.7205 386.719 102.73 390.529C106.819 401.959 111.492 412.913 116.749 423.867C112.076 421.486 107.987 419.581 103.314 417.676C97.4729 414.818 92.2158 412.437 86.3745 410.056C86.9586 411.008 86.9586 411.961 87.5427 412.913C92.2158 415.771 96.3046 418.152 100.978 420.533C107.403 423.867 113.828 427.677 120.254 431.011C121.422 433.392 122.59 435.773 124.343 438.155L128.432 444.822L130.768 448.156L133.105 451.49L137.778 457.681C139.53 459.586 141.282 461.967 143.035 463.872C143.619 464.825 144.787 465.777 145.371 466.73C137.778 461.967 130.184 457.681 122.006 453.395C115.581 450.061 109.155 446.727 102.73 443.393C104.482 445.775 105.651 448.156 107.403 450.537C111.492 452.442 115.581 454.347 119.67 456.252C128.432 460.062 137.194 464.349 145.955 467.682C152.381 474.35 158.806 480.541 167.568 484.828C162.895 481.97 158.806 478.16 155.302 473.874L152.381 471.016L150.044 468.159C148.292 466.254 146.54 464.349 145.371 461.967L141.282 455.776L137.194 449.108L135.441 445.775L133.689 442.441L130.768 436.25C138.946 440.536 147.124 444.346 155.302 448.156C163.479 451.966 172.241 456.252 181.003 459.586C182.171 461.015 183.34 461.967 184.508 463.396C191.517 471.492 199.695 479.112 209.625 484.828C203.2 480.065 199.111 476.255 195.606 472.445ZM151.797 411.961C145.955 408.151 140.114 404.817 134.273 401.483C126.679 397.197 119.67 393.387 112.076 389.1C110.908 385.767 109.74 382.433 108.571 378.623C107.403 373.384 106.235 368.621 105.067 363.383C110.324 365.764 115.581 368.621 120.838 371.003C127.263 373.86 133.105 376.718 139.53 379.099C139.53 379.575 139.53 380.052 140.114 380.528C143.619 391.005 147.124 401.959 151.797 411.961ZM138.946 378.147C133.689 374.813 128.432 371.479 122.59 368.145C116.165 364.335 109.74 361.001 103.314 357.668C103.314 355.286 102.73 352.429 102.146 350.048L99.2253 335.76L98.057 327.664C102.146 330.045 106.819 331.95 111.492 333.855C113.828 334.807 116.165 335.76 118.501 336.712C122.59 338.617 126.095 340.046 130.184 341.475L132.521 351.476C133.689 360.525 136.609 369.574 138.946 378.147ZM94.5523 169.071L96.3046 161.927L98.6412 149.544C102.73 151.449 106.235 153.354 110.324 155.259C115.581 157.641 120.838 160.022 126.679 161.927L125.511 167.642L124.343 174.786L122.006 189.55C121.422 192.884 121.422 196.217 120.838 199.551C117.333 197.17 113.828 194.789 109.74 192.884C104.482 189.55 99.2253 186.692 93.384 183.835L93.9681 176.215L94.5523 169.071ZM123.759 308.137C124.343 312.9 125.511 317.662 126.095 322.425L129.016 337.189L129.6 340.522C124.343 337.189 119.086 333.855 113.828 330.997C112.66 330.521 112.076 330.045 110.908 329.569C106.235 327.187 102.146 324.33 97.4729 321.948V320.996C96.8888 316.233 95.7205 311.471 95.1364 306.708L93.9681 294.326C98.6412 296.707 103.898 299.088 108.571 301.47C113.244 303.851 118.501 306.232 123.759 308.137ZM123.174 306.232C119.086 303.851 114.997 300.993 110.908 298.612C105.067 295.278 99.2253 291.944 93.384 288.611L92.2158 277.657L91.6316 263.369L91.0475 257.654C95.7205 260.035 100.394 262.417 105.651 264.798C110.324 267.179 114.997 269.084 120.254 270.989L120.838 278.609L122.59 293.373L123.174 306.232ZM89.8792 248.605C89.8792 243.843 89.8792 239.08 89.8792 234.318V222.411C93.9681 224.316 98.057 226.221 102.146 228.126C107.403 230.508 112.66 232.889 117.917 234.794C117.917 239.556 117.917 243.843 117.917 248.605L118.501 263.369L119.086 268.608C114.997 266.227 110.908 263.369 107.403 261.464C101.562 258.13 96.3046 255.273 90.4634 251.939L89.8792 248.605ZM106.819 195.741C110.908 197.646 115.581 199.551 119.67 200.98C119.67 201.932 119.67 203.361 119.086 204.314C118.501 209.076 117.917 214.315 117.917 219.078V233.841C113.244 230.984 108.571 228.126 103.898 225.269C99.2253 222.411 94.5523 220.03 89.2951 217.173C89.2951 213.362 89.8792 209.076 89.8792 205.266C90.4634 200.504 90.4634 195.741 91.0475 190.979L91.6316 188.597C96.8888 190.979 102.146 193.36 106.819 195.741ZM107.403 119.064C112.076 121.445 116.749 123.827 121.422 125.732C125.511 127.637 130.184 129.542 134.857 131.447C133.105 136.209 131.936 140.972 130.184 145.734L126.679 160.498V161.451C122.006 158.117 117.333 155.259 112.66 152.402C108.571 150.021 104.482 147.639 99.8094 145.258C101.562 136.686 104.482 127.637 107.403 119.064ZM155.886 443.87C147.124 439.107 138.362 434.345 129.016 429.582C127.848 429.106 126.679 428.63 125.511 428.153C120.838 417.676 116.749 406.722 113.244 395.768C119.086 398.625 125.511 401.959 131.352 404.817C138.362 408.151 145.371 411.484 152.381 414.342C155.886 421.962 159.39 429.106 164.063 436.726L168.152 443.393L170.489 446.727L172.825 450.061L177.498 456.252C178.082 456.729 178.082 457.205 178.667 457.681C171.073 452.442 163.479 448.156 155.886 443.87Z" fill="white"></path>
<path d="M237.664 473.397C234.16 470.063 231.239 465.777 228.318 461.967C225.398 458.157 222.477 454.347 220.141 450.061L216.636 443.869L213.131 437.678C211.963 435.773 210.795 433.392 209.626 431.487L206.706 425.295L203.785 419.104C202.617 417.199 202.033 414.818 201.449 412.437C199.696 408.15 197.944 403.864 196.191 399.578L191.518 386.243C189.766 381.956 188.598 377.194 187.43 372.907L183.925 359.572C182.172 350.523 179.836 341.475 178.083 332.426L175.747 319.091C175.163 314.328 173.995 310.042 173.41 305.279C171.658 296.23 170.49 287.182 168.737 278.133C169.322 287.182 169.906 296.23 170.49 305.756C171.074 314.804 172.826 323.853 173.995 333.378C174.579 338.141 175.747 342.427 176.331 347.19L179.252 361.001C180.42 365.287 181.588 370.05 182.756 374.336C183.925 378.622 185.093 383.385 186.845 387.671C192.687 405.293 199.696 422.914 209.626 439.583L213.131 445.774C214.299 447.679 216.052 449.584 217.22 451.966C220.141 456.252 223.061 460.062 226.566 463.872C230.071 467.682 233.576 471.492 237.08 474.826C240.585 478.16 245.258 481.493 249.931 483.875C244.674 480.065 241.169 476.731 237.664 473.397Z" fill="white"></path>
<path d="M178.666 133.827C176.914 139.542 175.745 145.257 174.577 150.972C173.409 156.688 172.825 162.403 172.241 168.118C173.993 162.403 175.745 156.688 177.498 150.972L180.418 142.4C181.587 139.542 182.171 136.685 183.339 133.827C185.676 128.112 186.844 122.873 189.764 117.158C190.933 114.301 192.101 111.443 193.269 109.062L196.774 100.966C202.031 90.0119 207.288 79.5343 213.714 69.533C217.218 64.2942 220.139 59.5316 224.228 54.7691C227.733 50.0065 231.822 45.244 236.495 40.4814C231.237 44.2915 226.564 48.5778 221.891 53.3403C217.218 58.1029 213.714 62.8654 209.625 68.1042C202.031 78.1056 196.19 89.0594 190.933 99.537C185.676 110.967 181.587 122.397 178.666 133.827Z" fill="white"></path>
<path d="M282.058 147.163C286.146 128.113 290.819 109.539 298.997 91.441C303.086 82.3922 307.759 73.3434 313.6 65.247C316.521 61.437 320.61 57.627 324.699 54.2932C328.788 50.9594 334.629 49.0544 340.47 48.5781C334.629 48.5781 328.788 50.4831 324.115 53.3407C319.442 56.1982 315.353 60.0082 311.848 63.8183C304.839 71.9146 299.581 80.4872 294.908 89.536C286.146 107.634 280.305 126.684 275.632 145.734C266.87 183.834 263.365 222.887 262.781 261.464C262.781 300.04 266.286 339.093 275.632 377.194C280.305 396.244 286.146 415.294 294.908 433.392C299.581 442.441 304.839 451.013 311.848 459.109C315.353 462.92 319.442 466.73 324.115 469.587C328.788 472.445 334.629 474.826 340.47 474.35C334.629 474.35 328.788 471.968 324.699 468.635C320.026 465.301 316.521 461.967 313.6 457.681C307.175 449.584 302.502 440.536 298.997 431.487C291.404 413.389 286.146 394.339 282.058 375.765C277.969 356.715 275.632 337.665 273.88 318.614C272.127 299.564 271.543 280.038 271.543 260.988C271.543 241.937 272.127 222.411 273.88 203.361C275.632 185.263 277.969 166.213 282.058 147.163Z" fill="white"></path>
</g>
<defs>
<linearGradient id="SvgjsLinearGradient1009" x1="558.731" y1="-58.192" x2="394.199" y2="779.895" gradientUnits="userSpaceOnUse">
<stop stop-color="#044986"></stop>
<stop offset="0.5529" stop-color="#0F76D1"></stop>
<stop offset="1" stop-color="#29B1FF"></stop>
</linearGradient>
<linearGradient id="SvgjsLinearGradient1008" x1="556.649" y1="199.611" x2="505.89" y2="670.285" gradientUnits="userSpaceOnUse">
<stop stop-color="#044986"></stop>
<stop offset="0.5529" stop-color="#0F76D1"></stop>
<stop offset="1" stop-color="#29B1FF"></stop>
</linearGradient>
<linearGradient id="SvgjsLinearGradient1007" x1="623.974" y1="-47.8426" x2="426.458" y2="744.489" gradientUnits="userSpaceOnUse">
<stop stop-color="#044986"></stop>
<stop offset="0.5529" stop-color="#0F76D1"></stop>
<stop offset="1" stop-color="#29B1FF"></stop>
</linearGradient>
<linearGradient id="SvgjsLinearGradient1006" x1="489.684" y1="44.4823" x2="281.003" y2="562.828" gradientUnits="userSpaceOnUse">
<stop stop-color="#044986"></stop>
<stop offset="0.5529" stop-color="#0F76D1"></stop>
<stop offset="1" stop-color="#29B1FF"></stop>
</linearGradient>
<clipPath id="SvgjsClipPath1005">
<rect width="512" height="512" fill="white"></rect>
</clipPath>
</defs>
</svg><style>@media (prefers-color-scheme: light) { :root { filter: none; } }
@media (prefers-color-scheme: dark) { :root { filter: none; } }
</style></svg>