<svg xmlns="http://www.w3.org/2000/svg" version="1.1" xmlns:xlink="http://www.w3.org/1999/xlink" width="64" height="64"><svg xmlns="http://www.w3.org/2000/svg" version="1.1" xmlns:xlink="http://www.w3.org/1999/xlink" width="64" height="64"><svg width="64" height="64" viewBox="0 0 64 64" fill="none" xmlns="http://www.w3.org/2000/svg">
<g clip-path="url(#clip0_4282_8641)">
<path d="M28.6127 31.9091C28.6127 39.172 29.7079 45.8395 31.4603 51.1974C31.5333 51.4355 31.6064 51.6736 31.6794 51.9118C31.7524 52.1499 31.8254 52.388 31.8984 52.5666C31.9714 52.8047 32.0445 52.9833 32.1175 53.2215C32.2635 53.6382 32.4825 54.0549 32.6286 54.4716C32.7746 54.8884 32.9937 55.3051 33.2127 55.6623C33.2127 55.6623 33.2127 55.6623 33.2127 55.7218C33.4318 56.079 33.5778 56.4362 33.7968 56.7934C33.8699 56.972 34.0159 57.1506 34.0889 57.3292C34.1619 57.5078 34.3079 57.6863 34.381 57.8649C34.454 58.0435 34.6 58.2221 34.673 58.3412C34.8191 58.5198 34.8921 58.6984 35.0381 58.877C35.1111 58.9961 35.2572 59.1746 35.3302 59.2937C35.4032 59.4128 35.4762 59.5318 35.6222 59.6509C35.6953 59.7104 35.7683 59.8295 35.7683 59.889C35.8413 59.9486 35.9143 60.0676 35.9873 60.1272C36.3524 60.5439 36.7175 60.9011 37.0826 61.2583C37.1556 61.3178 37.3016 61.4369 37.3746 61.4964C37.4476 61.5559 37.5937 61.675 37.6667 61.7345C37.8127 61.8536 37.8857 61.9131 38.0318 62.0322C38.1048 62.0917 38.2508 62.1512 38.3238 62.2108C38.3968 62.2703 38.5429 62.3298 38.6159 62.3894C38.6889 62.4489 38.8349 62.5084 38.908 62.568C38.981 62.6275 39.127 62.687 39.2 62.7466C39.4191 62.8656 39.6381 62.9252 39.8572 63.0442C39.9302 63.1037 40.0032 63.1037 40.0762 63.1037C40.1492 63.1037 40.1492 63.1037 40.1492 63.1633C40.2222 63.2228 40.3683 63.2228 40.4413 63.2228C40.4413 63.2228 40.4413 63.2228 40.5143 63.2228C40.5873 63.2228 40.7333 63.2823 40.8064 63.2823H40.8794C40.9524 63.2823 41.0984 63.3419 41.1714 63.3419C41.3175 63.3419 41.3905 63.3419 41.5365 63.4014C41.6826 63.4014 41.7556 63.4014 41.9016 63.4014C40.5873 63.7586 39.127 63.9967 37.6667 63.9967C31.5333 64.0563 24.9619 63.6991 24.9619 63.6991C24.9619 63.6991 18.3175 63.9967 13.0603 56.079C12.8413 55.7813 12.6952 55.4837 12.4762 55.186C11.819 54.0549 11.1619 52.8047 10.5778 51.4355C10.7238 51.2569 10.6508 51.1379 10.6508 51.0188C10.1397 49.7091 9.62857 48.2803 9.19048 46.673C9.11746 46.5539 9.11746 46.3753 9.04445 46.1967C8.75238 45.0656 8.46032 43.875 8.24127 42.6248C8.24127 42.5653 8.24127 42.4462 8.16825 42.3867C7.94921 41.3746 7.80317 40.3626 7.65714 39.2315C7.58413 38.9338 7.58413 38.5766 7.51111 38.279C7.51111 38.1599 7.51111 38.0409 7.4381 37.9218C7.4381 37.8027 7.4381 37.6837 7.36508 37.6241C7.29206 37.3265 7.29206 37.0288 7.29206 36.7312C7.29206 36.6716 7.29206 36.6121 7.29206 36.493C7.21905 36.0763 7.21905 35.7191 7.21905 35.3619C7.21905 35.1833 7.21905 35.0047 7.14603 34.7666C7.14603 34.588 7.14603 34.4094 7.07302 34.2308C7.07302 34.1118 7.07302 33.9927 7.07302 33.9332C7.07302 32.5044 7 31.0756 7 29.7064V29.5278C7 29.4087 7 29.3492 7 29.2301C7 29.1111 7 29.0516 7 28.9325C7 27.7419 7.07302 26.6108 7.14603 25.4796C7.14603 25.3606 7.14603 25.2415 7.14603 25.1225C7.21905 23.7532 7.4381 22.4435 7.58413 21.1934C7.58413 21.1338 7.58413 21.1338 7.58413 21.0743C7.87619 19.4669 8.16825 17.9786 8.60635 16.5499C8.60635 16.4903 8.67937 16.3713 8.67937 16.2522C9.04445 15.0616 9.48254 13.8709 9.92064 12.7994C9.92064 12.7398 9.99365 12.6208 9.99365 12.5612C13.6444 4.58398 20.0698 0.238159 28.0286 0.119095C34.454 3.16417e-05 38.9079 -0.178564 42.2667 0.476286C42.1937 0.476286 42.1937 0.476286 42.1206 0.476286C34.673 0.476286 28.6127 14.5853 28.6127 31.9091Z" fill="url(#paint0_linear_4282_8641)"></path>
<path d="M42.1207 63.3419C40.8064 63.6991 39.3461 63.9372 37.8857 63.9372C31.7524 63.9967 25.181 63.6395 25.181 63.6395C25.181 63.6395 18.5365 63.9372 13.2794 56.0195C13.0603 55.7218 12.9143 55.4242 12.6952 55.1265C12.0381 53.9954 11.381 52.7452 10.7968 51.376C10.7238 51.2569 10.6508 51.1379 10.6508 51.0188C10.1397 49.7091 9.62857 48.2803 9.19048 46.673C9.11746 46.5539 9.11746 46.3753 9.04445 46.1967C8.75238 45.0656 8.46032 43.875 8.24127 42.6248C8.24127 42.5653 8.24127 42.4462 8.16825 42.3867C7.94921 41.3746 7.80318 40.3626 7.65714 39.2315C7.58413 38.9338 7.58413 38.5767 7.51111 38.279C7.51111 38.1599 7.51111 38.0409 7.4381 37.9218C7.36508 37.5051 7.36508 37.0884 7.29206 36.6716C7.29206 36.6121 7.29206 36.5526 7.29206 36.4335C7.21905 35.6596 7.14603 34.8857 7.07302 34.1713C7.07302 34.0522 7.07302 33.9332 7.07302 33.8736C7.07302 32.5044 7 31.0756 7 29.7064V29.5278C7 29.3492 7 29.1111 7 28.9325C7.07302 29.1706 7.14603 29.3492 7.21905 29.5873C7.21905 29.7064 7.29206 29.7659 7.29206 29.885C7.87619 31.6114 8.53333 33.3379 9.48254 34.9452C9.62857 35.2429 9.7746 35.481 9.92064 35.7787C10.5048 36.7907 11.1619 37.8027 11.9651 38.8148C12.5492 39.5887 13.2064 40.3626 13.8635 41.077C14.1556 41.3746 14.4476 41.7318 14.7397 42.0295C15.2508 42.5653 15.8349 43.1011 16.4191 43.5773C16.8571 43.9345 17.2952 44.3512 17.7333 44.7084C17.8794 44.8275 18.0254 44.9466 18.2445 45.0656C19.7778 46.1967 21.4572 47.2088 23.2095 48.1017C23.5016 48.2208 23.7937 48.3994 24.0127 48.5185C26.3492 49.6496 28.8318 50.483 31.3873 51.0783C31.4603 51.3165 31.5333 51.5546 31.6064 51.7927C31.6794 52.0308 31.7524 52.269 31.8254 52.4476C31.8984 52.6857 31.9714 52.8643 32.0445 53.1024C32.1905 53.5191 32.4095 53.9359 32.5556 54.3526C32.7016 54.7693 32.9207 55.186 33.1397 55.5432C33.1397 55.5432 33.1397 55.5432 33.1397 55.6027C33.3587 55.9599 33.5048 56.3171 33.7238 56.6743C33.7968 56.8529 33.9429 57.0315 34.0159 57.2101C34.0889 57.3887 34.2349 57.5673 34.308 57.7459C34.381 57.9245 34.527 58.1031 34.6 58.2221C34.746 58.4007 34.8191 58.5793 34.9651 58.7579C35.0381 58.877 35.1841 59.0556 35.2572 59.1747C35.3302 59.2937 35.4032 59.4128 35.5492 59.5318C35.6222 59.5914 35.6953 59.7104 35.6953 59.77C35.7683 59.8295 35.8413 59.9486 35.9143 60.0081C36.2794 60.4248 36.6445 60.782 37.0095 61.1392C37.0826 61.1987 37.2286 61.3178 37.3016 61.3773C37.3746 61.4369 37.5207 61.5559 37.5937 61.6155C37.7397 61.7345 37.8127 61.7941 37.9587 61.9131C38.0318 61.9726 38.1778 62.0322 38.2508 62.0917C38.3238 62.1512 38.4699 62.2108 38.5429 62.2703C38.6159 62.3298 38.7619 62.3894 38.8349 62.4489C38.908 62.5084 39.054 62.568 39.127 62.6275C39.3461 62.7466 39.5651 62.8061 39.7841 62.9252C39.8572 62.9847 39.9302 62.9847 40.0032 62.9847C40.0762 62.9847 40.0762 62.9847 40.0762 63.0442C40.1492 63.1038 40.2953 63.1038 40.3683 63.1038C40.3683 63.1038 40.3683 63.1038 40.4413 63.1038C40.5143 63.1038 40.6603 63.1633 40.7334 63.1633H40.8064C40.8794 63.1633 41.0254 63.2228 41.0984 63.2228C41.2445 63.2228 41.3175 63.2228 41.4635 63.2824C41.9016 63.3419 41.9746 63.3419 42.1207 63.3419Z" fill="url(#paint1_linear_4282_8641)"></path>
<path d="M46.7206 61.556C47.7428 60.9606 48.692 60.2463 49.4952 59.4128C49.8603 59.0556 50.1524 58.6984 50.4444 58.2817C52.5619 55.4837 54.3143 51.9713 55.4095 47.3874C55.9206 45.3633 56.2857 43.1011 56.5047 40.5412C57.673 28.5753 56.9428 19.2288 52.4889 9.52516C52.1968 8.98937 51.9778 8.45358 51.6857 7.97733C50.7365 6.07231 49.7143 4.70308 48.619 3.63151C47.8158 2.85759 46.8666 2.20274 45.6984 1.72649C45.3333 1.54789 44.9682 1.42883 44.5301 1.30977C44.019 1.13117 43.5079 1.01211 42.9238 1.07164C42.6317 1.07164 42.4127 1.13117 42.1206 1.1907C41.6095 1.30977 41.0984 1.48836 40.5873 1.72649C40.0762 1.96462 39.565 2.32181 39.127 2.679C38.6158 3.09572 38.1777 3.51244 37.7396 3.9887C37.2285 4.52448 36.7904 5.06027 36.4254 5.65559C35.9873 6.31044 35.5492 6.96529 35.1841 7.67967C34.746 8.45358 34.3809 9.2275 34.0889 10.0014C33.7238 10.8349 33.3587 11.7278 33.0666 12.5613C32.7746 13.5138 32.4825 14.4663 32.1904 15.4188C31.8984 16.4308 31.6793 17.4429 31.4603 18.4549C31.2412 19.5265 31.0222 20.5981 30.8762 21.7292C30.7301 22.8603 30.5841 23.9914 30.4381 25.182C30.292 26.3727 30.219 27.5633 30.219 28.7539C30.146 29.8255 30.146 30.9566 30.146 32.0282C30.146 43.3988 32.7016 53.281 36.5714 58.6984C38.0317 60.782 39.7841 62.2108 41.5365 62.7466C42.4127 63.0443 43.4349 62.9847 44.2381 62.6275C45.1143 62.3299 45.9174 61.9727 46.7206 61.556ZM40.0031 51.1974C38.1047 46.9707 36.9365 40.3031 36.9365 32.7426C36.9365 24.7058 38.3238 17.6215 40.4412 13.4543C41.6825 11.0135 43.1428 9.64422 44.7492 9.64422C49.0571 9.64422 52.4889 20.0028 52.4889 32.7426C52.4889 45.4824 48.9841 55.8409 44.7492 55.8409C42.9238 55.8409 41.3174 54.1145 40.0031 51.1974Z" fill="url(#paint2_linear_4282_8641)"></path>
<path d="M51.9048 32.7425C51.9048 44.9465 48.546 54.8883 44.4571 54.8883C42.7778 54.8883 41.2444 53.2215 40.0032 50.4235C46.2825 39.1719 47.0127 25.5987 40.9524 14.2877C42.1206 11.9659 42.9968 10.5967 44.5302 10.5967C48.6191 10.5967 51.9048 20.5385 51.9048 32.7425Z" fill="url(#paint3_linear_4282_8641)"></path>
<path d="M54.2413 28.3372C54.0222 24.8843 53.5111 21.491 52.5619 18.1572C52.6349 18.5739 52.7079 18.9907 52.781 19.4074C52.854 19.8241 52.927 20.2408 53 20.6576C53.146 21.491 53.2191 22.3245 53.3651 23.2174C53.5841 24.9439 53.7302 26.6107 53.8032 28.3372C53.8762 30.0636 53.8762 31.7305 53.8762 33.4569C53.8762 35.1833 53.7302 36.8502 53.5841 38.5766C53.4381 40.3031 53.2191 41.97 52.927 43.6368C52.6349 45.3037 52.2698 46.9706 51.8318 48.6375C51.6127 49.471 51.3206 50.2449 51.0286 51.0783C50.7365 51.8522 50.3714 52.6857 49.9333 53.4001C49.4952 54.174 48.9841 54.8884 48.4 55.4837C48.1079 55.7813 47.7429 56.079 47.3048 56.2576C46.9397 56.4957 46.4286 56.6148 45.9905 56.6148C46.4286 56.6148 46.9397 56.4957 47.3048 56.3171C47.7429 56.1385 48.1079 55.8409 48.473 55.5432C49.1302 54.9479 49.7143 54.2335 50.1524 53.4596C51.1016 51.9713 51.6857 50.3044 52.2698 48.697C53.2921 45.3633 53.8762 41.97 54.1683 38.5766C54.3143 36.8502 54.3873 35.1238 54.3873 33.4569C54.3873 31.7305 54.3143 30.0636 54.2413 28.3372Z" fill="white"></path>
<path d="M24.4508 59.0556L24.0857 58.6984L23.7936 58.2817C23.5746 58.0436 23.3555 57.8054 23.2095 57.5078L22.6984 56.7339L22.1873 55.9004L21.9682 55.4837L21.7492 55.067L21.3111 54.2335C20.2159 51.9713 19.4127 49.6496 18.7555 47.2683C18.4635 46.0777 18.1714 44.887 17.9524 43.6964L17.5873 41.9105L17.2952 40.1245C17.2222 39.5292 17.0762 38.9339 17.0032 38.3385L16.7841 36.5526L16.5651 34.7666L16.4921 32.9807L16.346 31.1947C16.346 30.5994 16.346 30.0041 16.346 29.4088V27.6228C16.346 27.0275 16.419 26.4322 16.4921 25.8369C16.5651 25.2415 16.5651 24.6462 16.6381 24.0509L16.8571 22.265L17.0032 21.372L17.2222 20.2409L17.5873 18.4549C18.1714 16.0736 18.9016 13.7519 19.9968 11.4897C20.2889 10.9539 20.5079 10.3586 20.873 9.82281L21.3111 8.98936L21.8222 8.15592L22.1143 7.7392L22.4063 7.32247C22.6254 7.08435 22.7714 6.78669 22.9905 6.54856C23.4286 6.01277 23.7936 5.53652 24.3048 5.06026C23.2095 5.89371 22.2603 6.90575 21.4571 7.91779C21.2381 8.15592 21.019 8.45358 20.873 8.6917L20.2889 9.52515C19.9238 10.0609 19.5587 10.5967 19.2667 11.192C18.3174 12.8589 17.5873 14.5258 16.9301 16.2522C16.4921 15.9546 15.9809 15.6569 15.4698 15.3593C14.8857 15.0021 14.2286 14.6449 13.5714 14.2877C13.9365 13.3352 14.3016 12.3827 14.7397 11.4302C15.0317 10.8944 15.2508 10.2991 15.6159 9.76328L16.054 8.92983L16.5651 8.09639L16.8571 7.67966L17.1492 7.26294C17.3682 7.02481 17.5143 6.72715 17.7333 6.48903C18.1714 5.95324 18.5365 5.47699 19.0476 5.00073C17.9524 5.83418 17.0032 6.84622 16.2 7.85826C15.9809 8.09639 15.7619 8.39405 15.6159 8.63217L15.0317 9.58468C14.6667 10.1205 14.3016 10.6563 14.0095 11.2516C13.4984 12.1445 13.0603 13.0375 12.6952 13.9305C12.2571 13.6924 11.819 13.5138 11.3809 13.2757C10.9428 13.0971 10.5778 12.9185 10.1397 12.7399C10.1397 12.7994 10.0667 12.9185 10.0667 12.978C10.4317 13.2161 10.7968 13.4542 11.1619 13.6328C11.6 13.9305 12.1111 14.1686 12.5492 14.4068C12.1111 15.4188 11.746 16.4904 11.3809 17.5619C10.9428 17.3238 10.5047 17.1452 9.99363 16.9071C9.62856 16.7285 9.19046 16.5499 8.82538 16.4308C8.82538 16.4904 8.75236 16.6094 8.75236 16.7285C9.04443 16.9071 9.40951 17.1452 9.70157 17.3238C10.2127 17.6215 10.6508 17.9191 11.1619 18.1573C11.1619 18.2168 11.1619 18.2168 11.0889 18.2763L10.6508 20.0623L10.4317 20.9553L10.2857 21.8482L10.2127 22.2054C9.99364 22.0864 9.77459 21.9673 9.55554 21.9078C8.97141 21.6101 8.31427 21.372 7.65713 21.1339C7.65713 21.1934 7.65713 21.1934 7.65713 21.2529C8.16824 21.6101 8.67935 21.9673 9.26348 22.265C9.55554 22.4436 9.8476 22.6221 10.1397 22.7412L9.92062 23.7533C9.8476 24.3486 9.77459 25.0034 9.70157 25.5987C9.70157 25.8369 9.62856 26.1345 9.62856 26.3727C9.19046 26.1345 8.75236 25.9559 8.31427 25.7178C7.94919 25.5392 7.51109 25.3606 7.14601 25.182C7.14601 25.3011 7.14601 25.4201 7.14601 25.5392C7.43808 25.7178 7.80316 25.8964 8.09522 26.1345C8.60633 26.4322 9.11744 26.7298 9.62856 27.0275C9.62856 27.2061 9.62856 27.3252 9.62856 27.5038V29.3492C9.62856 29.8255 9.62856 30.3018 9.62856 30.778C9.40951 30.6589 9.11744 30.5399 8.8984 30.4208C8.38728 30.1827 7.80316 29.9446 7.29205 29.7064C7.21903 29.7064 7.14601 29.6469 7.073 29.6469V29.8255C7.14601 29.885 7.29205 29.9446 7.36506 30.0041C7.80316 30.2422 8.16824 30.5399 8.60633 30.778C8.97141 30.9566 9.33649 31.1947 9.62856 31.3733L9.70157 33.0402L9.8476 34.8857L9.92062 35.2429C9.77459 35.1834 9.62856 35.1238 9.55554 35.0643C9.26348 34.9452 9.04443 34.8262 8.75236 34.6476C8.24125 34.4094 7.73014 34.1713 7.29205 33.9927C7.29205 34.1118 7.29205 34.2308 7.29205 34.2904C7.65713 34.5285 8.09522 34.7666 8.4603 35.0048C8.97141 35.3024 9.48252 35.6001 10.0667 35.8977L10.1397 36.6717L10.3587 38.5171C10.4317 38.8148 10.4317 39.0529 10.5047 39.3506C9.92062 39.1125 9.48252 38.8743 8.97141 38.6957C8.4603 38.4576 8.0222 38.2195 7.51109 38.0409C7.51109 38.16 7.51109 38.279 7.58411 38.3981C7.94919 38.6362 8.31427 38.8743 8.75236 39.0529C9.33649 39.4101 9.92062 39.7078 10.5778 40.065C10.5778 40.184 10.5778 40.2436 10.6508 40.3626L11.0159 42.2081L11.3809 43.9345C11.0159 43.7559 10.6508 43.5773 10.2857 43.3988C9.62856 43.1011 8.97141 42.8034 8.31427 42.5058C8.31427 42.5653 8.31427 42.6844 8.38728 42.7439C8.8984 43.1011 9.48252 43.3987 9.99363 43.7559C10.5047 44.0536 11.0159 44.3513 11.527 44.6489C11.746 45.661 12.1111 46.673 12.4032 47.685C12.4032 47.8041 12.4762 47.8636 12.4762 47.9827C11.819 47.6255 11.0889 47.3278 10.4317 46.9707C9.99363 46.7325 9.55554 46.5539 9.11744 46.3753C9.19046 46.5539 9.19046 46.673 9.26348 46.8516C9.55554 47.0302 9.8476 47.2088 10.2127 47.3874C11.0889 47.8636 11.9651 48.3399 12.8413 48.8161C13.3524 50.2449 13.9365 51.6141 14.5936 52.9834C14.0095 52.6857 13.4984 52.4476 12.9143 52.2095C12.1841 51.8523 11.527 51.5546 10.7968 51.2569C10.8698 51.376 10.8698 51.4951 10.9428 51.6141C11.527 51.9713 12.0381 52.269 12.6222 52.5666C13.4254 52.9834 14.2286 53.4596 15.0317 53.8763C15.1778 54.174 15.3238 54.4717 15.5428 54.7693L16.054 55.6028L16.346 56.0195L16.6381 56.4362L17.2222 57.2101C17.4413 57.4483 17.6603 57.7459 17.8794 57.984C17.9524 58.1031 18.0984 58.2222 18.1714 58.3412C17.2222 57.7459 16.273 57.2101 15.2508 56.6743C14.4476 56.2576 13.6444 55.8409 12.8413 55.4242C13.0603 55.7218 13.2063 56.0195 13.4254 56.3172C13.9365 56.5553 14.4476 56.7934 14.9587 57.0315C16.054 57.5078 17.1492 58.0436 18.2444 58.4603C19.0476 59.2937 19.8508 60.0677 20.946 60.6034C20.3619 60.2463 19.8508 59.77 19.4127 59.2342L19.0476 58.877L18.7555 58.5198C18.5365 58.2817 18.3174 58.0436 18.1714 57.7459L17.6603 56.972L17.1492 56.1386L16.9301 55.7218L16.7111 55.3051L16.346 54.5312C17.3682 55.067 18.3905 55.5432 19.4127 56.0195C20.4349 56.4957 21.5302 57.0315 22.6254 57.4483C22.7714 57.6269 22.9175 57.7459 23.0635 57.9245C23.9397 58.9366 24.9619 59.8891 26.2032 60.6034C25.4 60.0081 24.8889 59.5319 24.4508 59.0556ZM18.9746 51.4951C18.2444 51.0188 17.5143 50.6021 16.7841 50.1854C15.8349 49.6496 14.9587 49.1733 14.0095 48.6375C13.8635 48.2208 13.7174 47.8041 13.5714 47.3278C13.4254 46.673 13.2794 46.0777 13.1333 45.4228C13.7905 45.7205 14.4476 46.0777 15.1047 46.3753C15.9079 46.7325 16.6381 47.0897 17.4413 47.3874C17.4413 47.4469 17.4413 47.5064 17.5143 47.566C17.9524 48.8757 18.3905 50.2449 18.9746 51.4951ZM17.3682 47.2683C16.7111 46.8516 16.054 46.4349 15.3238 46.0182C14.5206 45.5419 13.7174 45.1252 12.9143 44.7084C12.9143 44.4108 12.8413 44.0536 12.7682 43.7559L12.4032 41.97L12.2571 40.9579C12.7682 41.2556 13.3524 41.4937 13.9365 41.7319C14.2286 41.8509 14.5206 41.97 14.8127 42.089C15.3238 42.3272 15.7619 42.5058 16.273 42.6844L16.5651 43.9345C16.7111 45.0656 17.0762 46.1967 17.3682 47.2683ZM11.819 21.1339L12.0381 20.2409L12.3301 18.693C12.8413 18.9312 13.2794 19.1693 13.7905 19.4074C14.4476 19.7051 15.1047 20.0027 15.8349 20.2409L15.6889 20.9553L15.5428 21.8482L15.2508 23.6937C15.1778 24.1104 15.1778 24.5272 15.1047 24.9439C14.6667 24.6462 14.2286 24.3486 13.7174 24.1104C13.0603 23.6937 12.4032 23.3365 11.673 22.9793L11.746 22.0268L11.819 21.1339ZM15.4698 38.5171C15.5428 39.1125 15.6889 39.7078 15.7619 40.3031L16.127 42.1486L16.2 42.5653C15.5428 42.1486 14.8857 41.7319 14.2286 41.3747C14.0825 41.3151 14.0095 41.2556 13.8635 41.1961C13.2794 40.8984 12.7682 40.5412 12.1841 40.2436V40.1245C12.1111 39.5292 11.9651 38.9339 11.892 38.3385L11.746 36.7907C12.3301 37.0884 12.9873 37.386 13.5714 37.6837C14.1555 37.9814 14.8127 38.279 15.4698 38.5171ZM15.3968 38.279C14.8857 37.9814 14.3746 37.6242 13.8635 37.3265C13.1333 36.9098 12.4032 36.4931 11.673 36.0763L11.527 34.7071L11.454 32.9212L11.3809 32.2068C11.9651 32.5044 12.5492 32.8021 13.2063 33.0997C13.7905 33.3974 14.3746 33.6355 15.0317 33.8737L15.1047 34.8262L15.3238 36.6717L15.3968 38.279ZM11.2349 31.0757C11.2349 30.4803 11.2349 29.885 11.2349 29.2897V27.8014C11.746 28.0395 12.2571 28.2777 12.7682 28.5158C13.4254 28.8135 14.0825 29.1111 14.7397 29.3492C14.7397 29.9446 14.7397 30.4803 14.7397 31.0757L14.8127 32.9212L14.8857 33.576C14.3746 33.2783 13.8635 32.9212 13.4254 32.683C12.6952 32.2663 12.0381 31.9091 11.3079 31.4924L11.2349 31.0757ZM13.3524 24.4676C13.8635 24.7058 14.4476 24.9439 14.9587 25.1225C14.9587 25.2415 14.9587 25.4201 14.8857 25.5392C14.8127 26.1345 14.7397 26.7894 14.7397 27.3847V29.2302C14.1555 28.873 13.5714 28.5158 12.9873 28.1586C12.4032 27.8014 11.819 27.5038 11.1619 27.1466C11.1619 26.6703 11.2349 26.1345 11.2349 25.6583C11.3079 25.063 11.3079 24.4676 11.3809 23.8723L11.454 23.5747C12.1111 23.8723 12.7682 24.17 13.3524 24.4676ZM13.4254 14.883C14.0095 15.1807 14.5936 15.4783 15.1778 15.7165C15.6889 15.9546 16.273 16.1927 16.8571 16.4308C16.6381 17.0262 16.4921 17.6215 16.273 18.2168L15.8349 20.0623V20.1813C15.2508 19.7646 14.6667 19.4074 14.0825 19.0502C13.5714 18.7526 13.0603 18.4549 12.4762 18.1573C12.6952 17.0857 13.0603 15.9546 13.4254 14.883ZM19.4857 55.4837C18.3905 54.8884 17.2952 54.2931 16.127 53.6978C15.9809 53.6382 15.8349 53.5787 15.6889 53.5192C15.1047 52.2095 14.5936 50.8402 14.1555 49.471C14.8857 49.8282 15.6889 50.2449 16.419 50.6021C17.2952 51.0188 18.1714 51.4355 19.0476 51.7927C19.4857 52.7452 19.9238 53.6382 20.5079 54.5907L21.019 55.4242L21.3111 55.8409L21.6032 56.2576L22.1873 57.0315C22.2603 57.0911 22.2603 57.1506 22.3333 57.2101C21.3841 56.5553 20.4349 56.0195 19.4857 55.4837Z" fill="white"></path>
<path d="M29.7082 59.1746C29.2701 58.7579 28.905 58.2221 28.5399 57.7459C28.1748 57.2696 27.8097 56.7934 27.5177 56.2576L27.0796 55.4837L26.6415 54.7098C26.4955 54.4716 26.3494 54.174 26.2034 53.9358L25.8383 53.1619L25.4732 52.388C25.3272 52.1499 25.2542 51.8522 25.1812 51.5546C24.9621 51.0188 24.7431 50.483 24.524 49.9472L23.9399 48.2803C23.7209 47.7445 23.5748 47.1492 23.4288 46.6134L22.9907 44.9465C22.7717 43.8154 22.4796 42.6843 22.2605 41.5532L21.9685 39.8863C21.8955 39.291 21.7494 38.7552 21.6764 38.1599C21.4574 37.0288 21.3113 35.8977 21.0923 34.7666C21.1653 35.8977 21.2383 37.0288 21.3113 38.2194C21.3843 39.3505 21.6034 40.4817 21.7494 41.6723C21.8224 42.2676 21.9685 42.8034 22.0415 43.3987L22.4066 45.1251C22.5526 45.6609 22.6986 46.2562 22.8447 46.792C22.9907 47.3278 23.1367 47.9231 23.3558 48.4589C24.0859 50.6616 24.9621 52.8643 26.2034 54.9479L26.6415 55.7218C26.7875 55.9599 27.0066 56.1981 27.1526 56.4957C27.5177 57.0315 27.8828 57.5078 28.3209 57.984C28.759 58.4603 29.1971 58.9365 29.6351 59.3532C30.0732 59.77 30.6574 60.1867 31.2415 60.4843C30.5844 60.0081 30.1463 59.5914 29.7082 59.1746Z" fill="white"></path>
<path d="M22.3332 16.7284C22.1142 17.4428 21.9681 18.1572 21.8221 18.8716C21.6761 19.5859 21.603 20.3003 21.53 21.0147C21.7491 20.3003 21.9681 19.5859 22.1872 18.8716L22.5523 17.8C22.6983 17.4428 22.7713 17.0856 22.9173 16.7284C23.2094 16.014 23.3554 15.3592 23.7205 14.6448C23.8665 14.2876 24.0126 13.9304 24.1586 13.6328L24.5967 12.6207C25.2538 11.2515 25.911 9.94179 26.7142 8.69162C27.1523 8.03677 27.5173 7.44145 28.0284 6.84614C28.4665 6.25082 28.9777 5.6555 29.5618 5.06018C28.9046 5.53644 28.3205 6.07222 27.7364 6.66754C27.1523 7.26286 26.7142 7.85818 26.203 8.51303C25.2538 9.76319 24.5237 11.1324 23.8665 12.4421C23.2094 13.8709 22.6983 15.2997 22.3332 16.7284Z" fill="white"></path>
<path d="M35.2572 18.3954C35.7683 16.0141 36.3524 13.6923 37.3746 11.4301C37.8858 10.299 38.4699 9.16792 39.2 8.15588C39.5651 7.67962 40.0762 7.20337 40.5873 6.78665C41.0985 6.36992 41.8286 6.1318 42.5588 6.07227C41.8286 6.07227 41.0985 6.31039 40.5143 6.66758C39.9302 7.02477 39.4191 7.50103 38.981 7.97728C38.1048 8.98932 37.4477 10.0609 36.8635 11.192C35.7683 13.4542 35.0381 15.8355 34.454 18.2168C33.3588 22.9793 32.9207 27.8609 32.8477 32.683C32.8477 37.5051 33.2857 42.3867 34.454 47.1492C35.0381 49.5305 35.7683 51.9118 36.8635 54.174C37.4477 55.3051 38.1048 56.3766 38.981 57.3887C39.4191 57.8649 39.9302 58.3412 40.5143 58.6984C41.0985 59.0556 41.8286 59.3532 42.5588 59.2937C41.8286 59.2937 41.0985 58.996 40.5873 58.5793C40.0032 58.1626 39.5651 57.7459 39.2 57.2101C38.3969 56.198 37.8127 55.0669 37.3746 53.9358C36.4254 51.6736 35.7683 49.2924 35.2572 46.9706C34.7461 44.5893 34.454 42.2081 34.235 39.8268C34.0159 37.4455 33.9429 35.0047 33.9429 32.6235C33.9429 30.2422 34.0159 27.8014 34.235 25.4201C34.454 23.1579 34.7461 20.7766 35.2572 18.3954Z" fill="white"></path>
</g>
<defs>
<linearGradient id="paint0_linear_4282_8641" x1="69.8413" y1="-7.274" x2="49.2749" y2="97.4868" gradientUnits="userSpaceOnUse">
<stop stop-color="#044986"></stop>
<stop offset="0.5529" stop-color="#0F76D1"></stop>
<stop offset="1" stop-color="#29B1FF"></stop>
</linearGradient>
<linearGradient id="paint1_linear_4282_8641" x1="69.5811" y1="24.9514" x2="63.2363" y2="83.7856" gradientUnits="userSpaceOnUse">
<stop stop-color="#044986"></stop>
<stop offset="0.5529" stop-color="#0F76D1"></stop>
<stop offset="1" stop-color="#29B1FF"></stop>
</linearGradient>
<linearGradient id="paint2_linear_4282_8641" x1="77.9968" y1="-5.98032" x2="53.3073" y2="93.0612" gradientUnits="userSpaceOnUse">
<stop stop-color="#044986"></stop>
<stop offset="0.5529" stop-color="#0F76D1"></stop>
<stop offset="1" stop-color="#29B1FF"></stop>
</linearGradient>
<linearGradient id="paint3_linear_4282_8641" x1="61.2105" y1="5.56029" x2="35.1255" y2="70.3534" gradientUnits="userSpaceOnUse">
<stop stop-color="#044986"></stop>
<stop offset="0.5529" stop-color="#0F76D1"></stop>
<stop offset="1" stop-color="#29B1FF"></stop>
</linearGradient>
<clipPath id="clip0_4282_8641">
<rect width="64" height="64" fill="white"></rect>
</clipPath>
</defs>
</svg></svg><style>@media (prefers-color-scheme: light) { :root { filter: none; } }
@media (prefers-color-scheme: dark) { :root { filter: none; } }
</style></svg>