<svg width="20" height="20" viewBox="0 0 20 20" fill="none" xmlns="http://www.w3.org/2000/svg">
<path d="M5.57622 19.9283L4.7149 18.0852L2.7222 18.5478C2.62001 18.5695 2.53972 18.4683 2.58352 18.3743L5.16016 13.1484L8.37184 14.7025L5.79519 19.9283C5.7514 20.0223 5.61271 20.0223 5.57622 19.9283Z" fill="#FE646F"/>
<path d="M5.21094 19.1332L5.5759 19.9283C5.6197 20.0223 5.75108 20.0223 5.79488 19.9283L8.37152 14.7024L7.5832 14.3193L5.21094 19.1332Z" fill="#FD4755"/>
<path d="M14.5612 19.9283L15.4226 18.0852L17.4153 18.5478C17.5174 18.5695 17.5977 18.4683 17.5539 18.3743L14.9773 13.1484L11.7656 14.7025L14.3423 19.9283C14.3861 20.0223 14.5175 20.0223 14.5612 19.9283Z" fill="#FE646F"/>
<path d="M14.9194 19.1332L14.5544 19.9283C14.5106 20.0223 14.3792 20.0223 14.3354 19.9283L11.7588 14.7024L12.5471 14.3193L14.9194 19.1332Z" fill="#FD4755"/>
<path d="M14.3939 14.2754L13.9632 15.2873C13.6567 16.0029 12.8537 16.3715 12.1092 16.1474L11.0508 15.8222C10.6712 15.7065 10.2552 15.7427 9.90483 15.9234L8.91942 16.4221C8.21869 16.7763 7.36468 16.5522 6.94132 15.8944L6.34278 14.9693C6.1238 14.6368 5.78804 14.3982 5.40118 14.3115L4.32088 14.0657C3.55446 13.8923 3.04351 13.1767 3.1457 12.4033L3.28439 11.3191C3.33548 10.9288 3.22599 10.5312 2.98512 10.2132L2.31359 9.3386C1.83913 8.71699 1.91942 7.8424 2.48877 7.31475L3.29899 6.57026C3.59096 6.30283 3.76614 5.92697 3.78804 5.53665L3.83913 4.43799C3.87563 3.66459 4.50337 3.04298 5.29169 2.99961L6.40118 2.96347C6.80264 2.94179 7.1749 2.76831 7.44497 2.47919L8.1968 1.67688C8.72964 1.10586 9.61285 1.02635 10.2406 1.50341L11.1238 2.16839C11.445 2.40691 11.8391 2.51533 12.2406 2.46474L13.3355 2.3274C14.1165 2.22621 14.8391 2.73217 15.0143 3.49112L15.2625 4.56087C15.3501 4.94395 15.591 5.28367 15.9267 5.49329L16.861 6.08598C17.518 6.50521 17.7515 7.35812 17.3939 8.04479L16.8902 9.02057C16.7077 9.37475 16.6713 9.77952 16.788 10.1554L17.1165 11.2034C17.3501 11.9479 16.9705 12.743 16.2479 13.0394L15.226 13.4658C14.8464 13.6248 14.5472 13.914 14.3939 14.2754Z" fill="#F7CE5C"/>
<mask id="mask0_4110_7075" style="mask-type:luminance" maskUnits="userSpaceOnUse" x="2" y="1" width="16" height="16">
<path d="M14.3939 14.2754L13.9632 15.2873C13.6567 16.0029 12.8537 16.3715 12.1092 16.1474L11.0508 15.8222C10.6712 15.7065 10.2552 15.7427 9.90483 15.9234L8.91942 16.4221C8.21869 16.7763 7.36468 16.5522 6.94132 15.8944L6.34278 14.9693C6.1238 14.6368 5.78804 14.3982 5.40118 14.3115L4.32088 14.0657C3.55446 13.8923 3.04351 13.1767 3.1457 12.4033L3.28439 11.3191C3.33548 10.9288 3.22599 10.5312 2.98512 10.2132L2.31359 9.3386C1.83913 8.71699 1.91942 7.8424 2.48877 7.31475L3.29899 6.57026C3.59096 6.30283 3.76614 5.92697 3.78804 5.53665L3.83913 4.43799C3.87563 3.66459 4.50337 3.04298 5.29169 2.99961L6.40118 2.96347C6.80264 2.94179 7.1749 2.76831 7.44497 2.47919L8.1968 1.67688C8.72964 1.10586 9.61285 1.02635 10.2406 1.50341L11.1238 2.16839C11.445 2.40691 11.8391 2.51533 12.2406 2.46474L13.3355 2.3274C14.1165 2.22621 14.8391 2.73217 15.0143 3.49112L15.2625 4.56087C15.3501 4.94395 15.591 5.28367 15.9267 5.49329L16.861 6.08598C17.518 6.50521 17.7515 7.35812 17.3939 8.04479L16.8902 9.02057C16.7077 9.37475 16.6713 9.77952 16.788 10.1554L17.1165 11.2034C17.3501 11.9479 16.9705 12.743 16.2479 13.0394L15.226 13.4658C14.8464 13.6248 14.5472 13.914 14.3939 14.2754Z" fill="white"/>
</mask>
<g mask="url(#mask0_4110_7075)">
<path d="M8.80957 0.231746C7.4446 0.969007 10.1599 2.40016 11.1672 2.5664C12.1745 2.73265 13.8607 2.23391 14.5395 3.73735C15.211 5.24078 15.0431 5.40703 16.3935 6.57797C17.7439 7.74891 15.8899 8.91263 16.0577 9.41859C16.2256 9.91733 16.7293 10.922 16.5614 11.7532C16.3935 12.5845 14.3716 13.0904 14.2037 13.5892C14.2037 13.5892 13.7001 16.0901 12.1818 16.0901C10.6636 16.0901 13.5322 16.9213 13.5322 16.9213C13.5322 16.9213 18.7585 14.4204 17.9118 7.90793C17.065 1.39546 10.6636 -0.765724 8.80957 0.231746Z" fill="#F7C552"/>
</g>
<path d="M9.81735 13.5884C12.4256 13.5884 14.54 11.4947 14.54 8.9119C14.54 6.32911 12.4256 4.23535 9.81735 4.23535C7.20912 4.23535 5.09473 6.32911 5.09473 8.9119C5.09473 11.4947 7.20912 13.5884 9.81735 13.5884Z" fill="#F2BB4B"/>
<path d="M5.94144 8.9119C5.94144 6.46882 7.83195 4.46665 10.2407 4.25704C10.102 4.24258 9.96334 4.23535 9.81735 4.23535C7.21151 4.23535 5.09473 6.32426 5.09473 8.9119C5.09473 11.4923 7.20422 13.5884 9.81735 13.5884C9.95604 13.5884 10.102 13.5812 10.2407 13.5668C7.83195 13.3571 5.94144 11.355 5.94144 8.9119Z" fill="#EBA134"/>
<path d="M12.4303 7.14892C12.1456 6.86703 11.6858 6.86703 11.4084 7.14892L9.23324 9.30288L8.25513 8.33432C7.97046 8.05243 7.51061 8.05243 7.23324 8.33432C6.95586 8.61621 6.94856 9.07158 7.23324 9.34625L8.67849 10.7774C8.81718 10.9147 8.99966 10.9798 9.18214 10.987C9.39382 11.0159 9.6201 10.9436 9.78798 10.7846L12.4376 8.16085C12.7077 7.87895 12.7077 7.42359 12.4303 7.14892Z" fill="white"/>
</svg>
