<svg width="20" height="20" viewBox="0 0 20 20" fill="none" xmlns="http://www.w3.org/2000/svg">
<g clip-path="url(#clip0_4110_7061)">
<path d="M7.28847 7.43883H5.36831V7.41746H4.15746C3.81638 7.4181 3.48808 7.28839 3.24045 7.05513C2.99282 6.82187 2.84479 6.5029 2.82697 6.16417C2.53915 6.09723 2.28196 5.93684 2.09603 5.70833C1.9101 5.47982 1.80603 5.19622 1.80025 4.90233C1.5213 4.8236 1.27585 4.6564 1.10125 4.42618C0.926646 4.19596 0.832456 3.91531 0.83301 3.62695H7.28847C8.34886 3.62695 9.20863 4.48195 9.20863 5.53646C9.20863 6.59096 8.34886 7.43883 7.28847 7.43883Z" fill="#CACED9"/>
<path d="M5.4847 3.62695H5.47324V4.7071H2.39095C1.62862 4.7071 0.997405 4.24327 0.863424 3.62695H0.836914C0.836914 4.23329 1.24316 4.74273 1.80058 4.90091C1.80603 5.19504 1.90996 5.47897 2.09591 5.70777C2.28187 5.93657 2.53923 6.09717 2.82729 6.16417C2.84511 6.5029 2.99314 6.82187 3.24077 7.05513C3.4884 7.28839 3.8167 7.4181 4.15779 7.41746H6.80159V7.17236H4.15779C3.86111 7.17289 3.57277 7.0748 3.33858 6.89368C3.10439 6.71256 2.93779 6.4588 2.86526 6.17272C2.95124 6.18982 3.04151 6.19908 3.13322 6.19908H5.77702V5.95398H3.13322C2.82841 5.95487 2.53254 5.85159 2.29516 5.66144C2.05777 5.47129 1.89328 5.20581 1.82923 4.90946C1.93742 4.93724 2.05134 4.9522 2.16885 4.9522H5.48399L5.4847 3.62695Z" fill="white"/>
<path d="M19.6336 8.83488L10.477 17.9406C9.9898 18.4251 9.19451 18.4251 8.7073 17.9406L7.28151 16.5228C7.04744 16.2891 6.91602 15.9727 6.91602 15.6428C6.91602 15.313 7.04744 14.9966 7.28151 14.7629L16.4453 5.66425C16.6803 5.43148 16.9984 5.30078 17.3301 5.30078C17.6618 5.30078 17.98 5.43148 18.215 5.66425L19.6407 7.08213C20.1208 7.5595 20.1208 8.35038 19.6336 8.83488Z" fill="#008463"/>
<path d="M18.2432 7.45285L9.08657 16.5586C8.59937 17.0431 7.80408 17.0431 7.31687 16.5586L1.95046 11.222C1.71638 10.9883 1.58496 10.6719 1.58496 10.342C1.58496 10.0122 1.71638 9.6958 1.95046 9.46211L11.1142 0.363469C11.3492 0.130694 11.6674 0 11.9991 0C12.3307 0 12.6489 0.130694 12.8839 0.363469L18.2432 5.7001C18.7304 6.1846 18.7304 6.96835 18.2432 7.45285Z" fill="#00F397"/>
<path d="M11.4433 1.63153C11.603 1.47463 11.8185 1.38664 12.043 1.38664C12.2675 1.38664 12.483 1.47463 12.6427 1.63153V1.63296L16.8971 5.86379C17.0549 6.02277 17.1428 6.23754 17.1414 6.46091C17.1401 6.68428 17.0497 6.89799 16.89 7.05509L8.7078 15.1918C8.54802 15.3484 8.33274 15.4361 8.10846 15.4361C7.88418 15.4361 7.66891 15.3484 7.50913 15.1918L7.5077 15.1904L3.25397 10.9596C3.09637 10.8007 3.00801 10.5864 3.00801 10.3632C3.00801 10.14 3.09637 9.92579 3.25397 9.76687H3.2554L11.4433 1.63153ZM13.011 1.26103C12.7528 1.0072 12.4043 0.864968 12.0413 0.865235C11.6782 0.865502 11.33 1.00825 11.0722 1.26245L2.88284 9.39922L2.8814 9.40064C2.62616 9.65738 2.48313 10.0039 2.4834 10.3649C2.48367 10.726 2.62721 11.0723 2.88284 11.3287L7.13871 15.5609L7.14014 15.5624C7.39831 15.8162 7.74679 15.9584 8.10983 15.9581C8.47287 15.9579 8.82114 15.8151 9.07893 15.5609L17.2611 7.42416C17.389 7.29798 17.4907 7.14797 17.5603 6.98269C17.6299 6.8174 17.6661 6.6401 17.6668 6.46091C17.6674 6.28172 17.6326 6.10416 17.5642 5.93838C17.4958 5.77259 17.3953 5.62183 17.2683 5.49471L13.0124 1.26245L13.011 1.26103ZM14.5392 6.47725C14.5392 7.12163 14.2818 7.73961 13.8236 8.19526C13.3654 8.6509 12.744 8.90688 12.096 8.90688C11.448 8.90688 10.8266 8.6509 10.3684 8.19526C9.91024 7.73961 9.65283 7.12163 9.65283 6.47725C9.65283 5.83287 9.91024 5.21489 10.3684 4.75924C10.8266 4.3036 11.448 4.04762 12.096 4.04762C12.744 4.04762 13.3654 4.3036 13.8236 4.75924C14.2818 5.21489 14.5392 5.83287 14.5392 6.47725Z" fill="#008463"/>
<path d="M7.75155 3.70508L5.51758 5.92808L14.0336 14.3969L16.2676 12.1753L7.75155 3.70508Z" fill="#FFF478"/>
<path d="M14.8829 10.8027L12.6475 13.0243L14.036 14.4051L16.27 12.1828L14.8822 10.8027H14.8829Z" fill="#FFB02E"/>
<path d="M5.59754 9.01075C5.54747 8.95973 5.47907 8.93058 5.40739 8.92971C5.3357 8.92884 5.26661 8.95632 5.2153 9.00612C5.164 9.05591 5.13468 9.12393 5.13381 9.19522C5.13294 9.2665 5.16057 9.33522 5.21064 9.38624L5.58106 9.76386C5.27155 10.17 5.24718 10.569 5.33388 10.8882C5.3876 11.0825 5.48237 11.2632 5.61187 11.4183C5.64099 11.4531 5.67338 11.4851 5.7086 11.5138C5.86211 11.6377 6.04116 11.7265 6.23306 11.7738C6.60061 11.8636 7.07349 11.8016 7.54421 11.3335C7.71617 11.1625 7.87236 11.0863 8.00276 11.0556C8.12376 11.0277 8.25001 11.0319 8.36888 11.0677C8.48136 11.0998 8.57666 11.1525 8.64544 11.1988C8.69702 11.2338 8.74216 11.2772 8.77225 11.3314C8.80521 11.3912 8.84318 11.476 8.86253 11.5765C8.89835 11.7631 8.87973 12.0375 8.56591 12.3495C8.25281 12.6609 7.97625 12.678 7.78638 12.6417C7.67263 12.6186 7.5647 12.573 7.46898 12.5077L7.45465 12.497L7.4525 12.4956C7.39702 12.4503 7.32572 12.4288 7.25431 12.4359C7.18289 12.4429 7.11721 12.4778 7.07169 12.533C7.02618 12.5882 7.00458 12.6591 7.01163 12.7301C7.01869 12.8011 7.05382 12.8664 7.10931 12.9117L7.11074 12.9124L7.11433 12.9153L7.12507 12.9238L7.15803 12.948C7.31586 13.0565 7.49435 13.1316 7.68249 13.1689C7.98699 13.228 8.36601 13.1903 8.74718 12.9053L9.16703 13.3271C9.19197 13.3522 9.22163 13.3722 9.25433 13.3859C9.28704 13.3996 9.32214 13.4068 9.35763 13.4071C9.39313 13.4073 9.42832 13.4006 9.4612 13.3873C9.49408 13.374 9.52401 13.3544 9.54927 13.3296C9.57454 13.3048 9.59464 13.2753 9.60844 13.2428C9.62224 13.2102 9.62946 13.1753 9.62969 13.14C9.62992 13.1047 9.62316 13.0697 9.6098 13.037C9.59643 13.0043 9.57671 12.9746 9.55178 12.9495L9.12906 12.5241C9.41135 12.1486 9.45147 11.776 9.39416 11.476C9.36632 11.3342 9.31628 11.1977 9.24584 11.0713C9.17429 10.9428 9.07221 10.8337 8.94851 10.7535C8.81706 10.6645 8.67253 10.5962 8.52005 10.5512C8.31163 10.4894 8.0906 10.4828 7.87881 10.5319C7.63807 10.5889 7.39518 10.7208 7.16233 10.953C6.82272 11.29 6.54329 11.2957 6.36131 11.2523C6.27447 11.2304 6.1919 11.1943 6.11699 11.1454C6.0601 11.109 6.01172 11.0609 5.97513 11.0043C5.92183 10.9258 5.88166 10.8391 5.85619 10.7478C5.8046 10.5583 5.80532 10.2769 6.13992 9.94412C6.47451 9.61139 6.7611 9.60782 6.95813 9.65912C7.08712 9.6934 7.20696 9.75543 7.30921 9.84081L7.31136 9.84295C7.36427 9.88728 7.43224 9.90978 7.50132 9.90585C7.5704 9.90192 7.63534 9.87184 7.68282 9.82179C7.7303 9.77175 7.75673 9.70553 7.75666 9.63673C7.7566 9.56792 7.73006 9.50175 7.68249 9.45179H7.68178L7.68034 9.45036L7.67676 9.4468L7.66673 9.43754C7.61917 9.3967 7.5689 9.35909 7.51627 9.32496C7.38629 9.24069 7.24357 9.17767 7.09355 9.13829C6.77328 9.05564 6.37134 9.07986 5.96438 9.3841L5.59754 9.01075Z" fill="white"/>
<path d="M13.0703 15.4899V13.5804C13.0703 12.5259 13.9229 11.6709 14.9833 11.6709C16.0437 11.6709 16.9035 12.5259 16.9035 13.5804V20C16.2923 20 15.7786 19.5939 15.621 19.0382C15.3254 19.0324 15.0403 18.9289 14.8105 18.744C14.5807 18.5591 14.4194 18.3034 14.3521 18.0171C14.0115 17.9994 13.6907 17.8522 13.4562 17.606C13.2216 17.3597 13.0912 17.0332 13.0918 16.694V15.4899H13.0703Z" fill="#CACED9"/>
<path d="M13.3383 16.6936C13.3383 17.3149 13.7646 17.8343 14.3435 17.9789C14.3257 17.8912 14.3168 17.8019 14.317 17.7125V15.0833H14.5634V17.7125C14.5634 18.3501 15.012 18.8802 15.6138 19.0085C15.5852 18.8982 15.5707 18.7847 15.5708 18.6708V15.374H16.9035V15.3854H15.8173V18.4506C15.8173 19.2087 16.2837 19.8364 16.9035 19.9697V19.996C16.6142 19.9965 16.3327 19.9032 16.1015 19.7303C15.8703 19.5573 15.7021 19.3142 15.6224 19.0377C15.3266 19.0323 15.0411 18.9289 14.811 18.744C14.581 18.5591 14.4195 18.3032 14.3521 18.0167C14.0115 17.999 13.6907 17.8518 13.4562 17.6055C13.2216 17.3592 13.0911 17.0328 13.0918 16.6936V14.0645H13.3383V16.6936Z" fill="white"/>
</g>
<defs>
<clipPath id="clip0_4110_7061">
<rect width="20" height="20" fill="white"/>
</clipPath>
</defs>
</svg>
